<svg xmlns="http://www.w3.org/2000/svg" width="161.219" height="25.06" viewBox="0 0 161.219 25.06">
  <defs>
    <style>
      .cls-1 {
        fill: #f7f7f7;
        fill-rule: evenodd;
      }
    </style>
  </defs>
  <path class="cls-1" d="M823.347,5957.95c-7.227,0-13.086,5.61-13.086,12.53s5.859,12.53,13.086,12.53,13.086-5.61,13.086-12.53S830.574,5957.95,823.347,5957.95Zm3.032,8.87h-1.1a0.835,0.835,0,0,0-1.025.96v1.28h2.056l-0.272,1.98h-1.784v5.11H822.1v-5.11h-1.788v-1.98H822.1v-1.47a2.549,2.549,0,0,1,.731-1.94,2.713,2.713,0,0,1,1.944-.69,12.842,12.842,0,0,1,1.6.08v1.78Zm30.725-8.87c-7.227,0-13.086,5.61-13.086,12.53s5.859,12.53,13.086,12.53,13.086-5.61,13.086-12.53S864.331,5957.95,857.1,5957.95Zm4.983,10.37c0,0.06.006,0.16,0.006,0.28a5.935,5.935,0,0,1-.266,1.74,6.4,6.4,0,0,1-.81,1.68,6.717,6.717,0,0,1-1.3,1.41,5.743,5.743,0,0,1-1.812.98,7,7,0,0,1-2.266.37,6.493,6.493,0,0,1-3.48-.98,4.5,4.5,0,0,0,.546.03,4.559,4.559,0,0,0,2.815-.93,2.277,2.277,0,0,1-1.32-.43,2.137,2.137,0,0,1-.8-1.07,3.343,3.343,0,0,0,.428.03,2.4,2.4,0,0,0,.6-0.07,2.322,2.322,0,0,1-1.3-.75,2.061,2.061,0,0,1-.517-1.38v-0.03a2.282,2.282,0,0,0,1.026.27,2.13,2.13,0,0,1-.738-0.77,2.09,2.09,0,0,1,.036-2.13,6.478,6.478,0,0,0,2.067,1.61,6.628,6.628,0,0,0,2.607.66,2.282,2.282,0,0,1-.056-0.49,2.038,2.038,0,0,1,.663-1.54,2.246,2.246,0,0,1,1.6-.63,2.212,2.212,0,0,1,1.656.68,4.578,4.578,0,0,0,1.44-.52,2.125,2.125,0,0,1-1,1.19,4.474,4.474,0,0,0,1.3-.33A4.614,4.614,0,0,1,862.087,5968.32Zm27.538-6.43c-7.227,0-9.592.99-9.588,7.91,0,6.89,3.77,11.75,11.254,9.6,6.941-1.99,7.922-1.62,7.922-8.54S896.852,5961.89,889.625,5961.89Zm34.994-3.94c-7.228,0-13.087,5.61-13.087,12.53s5.859,12.53,13.087,12.53,13.086-5.61,13.086-12.53S931.846,5957.95,924.619,5957.95Zm-2.542,16.79h-2v-5.76h2v5.76Zm-0.179-6.83a1.176,1.176,0,0,1-.822.29h-0.012a1.124,1.124,0,0,1-.8-0.29,0.9,0.9,0,0,1-.3-0.7,0.933,0.933,0,0,1,.312-0.72,1.209,1.209,0,0,1,.815-0.28,1.171,1.171,0,0,1,.807.28,0.963,0.963,0,0,1,.31.72A0.874,0.874,0,0,1,921.9,5967.91Zm7.38,6.83h-2v-3.08a1.6,1.6,0,0,0-.246-0.95,0.882,0.882,0,0,0-.768-0.35,1.033,1.033,0,0,0-.64.2,1.218,1.218,0,0,0-.385.5,1.3,1.3,0,0,0-.067.47v3.21h-2c0.007-1.54.012-2.8,0.012-3.76s0-1.53-.006-1.72l-0.006-.28h2v0.82a2.415,2.415,0,0,1,.237-0.3,2.208,2.208,0,0,1,.343-0.31,1.559,1.559,0,0,1,.528-0.25,2.5,2.5,0,0,1,.694-0.09,2.2,2.2,0,0,1,1.668.66,2.682,2.682,0,0,1,.632,1.93v3.3Zm29.1-16.79a12.542,12.542,0,1,0,0,25.06c7.227,0,13.086-5.61,13.086-12.53S965.6,5957.95,958.376,5957.95Zm5.435,12.29v0.79a12.141,12.141,0,0,1-.109,1.69,2.2,2.2,0,0,1-.152.57,1.254,1.254,0,0,1-.194.36l-0.085.1a1.04,1.04,0,0,1-.176.15,0.581,0.581,0,0,1-.188.11c-0.065.03-.122,0.06-0.17,0.08a0.761,0.761,0,0,1-.173.04c-0.067.02-.115,0.02-0.146,0.03a1.4,1.4,0,0,1-.139.02,0.477,0.477,0,0,0-.1.01c-1.015.07-2.283,0.11-3.8,0.11-0.837-.01-1.564-0.02-2.181-0.04s-1.023-.03-1.217-0.05l-0.3-.02-0.218-.02a2.952,2.952,0,0,1-.331-0.06,2.151,2.151,0,0,1-.309-0.12,1.115,1.115,0,0,1-.343-0.24,0.769,0.769,0,0,1-.094-0.11,1.882,1.882,0,0,1-.176-0.34,2.028,2.028,0,0,1-.161-0.58c-0.032-.25-0.057-0.52-0.075-0.8s-0.03-.5-0.034-0.66v-1.02a12,12,0,0,1,.109-1.68,2.175,2.175,0,0,1,.152-0.58,1.627,1.627,0,0,1,.194-0.36l0.085-.1a1.748,1.748,0,0,1,.176-0.15,1.56,1.56,0,0,1,.188-0.11c0.065-.03.122-0.06,0.17-0.08s0.106-.03.173-0.05,0.114-.02.142-0.02a1.264,1.264,0,0,1,.14-0.02,0.7,0.7,0,0,1,.1-0.01c1.015-.07,2.283-0.1,3.8-0.1,0.679,0,1.335.01,1.968,0.02s1.1,0.04,1.392.06l0.443,0.02a0.7,0.7,0,0,1,.1.01,1.264,1.264,0,0,1,.14.02c0.028,0,.075.01,0.142,0.02s0.124,0.03.173,0.05,0.105,0.05.17,0.08a1.56,1.56,0,0,1,.188.11,1.867,1.867,0,0,1,.176.15c0.024,0.03.055,0.06,0.094,0.11a1.953,1.953,0,0,1,.176.34,2.1,2.1,0,0,1,.161.59c0.032,0.25.057,0.51,0.075,0.79s0.029,0.5.034,0.66v0.23Zm-6.558,1.74,2.936-1.45-2.936-1.47v2.92Z" transform="translate(-810.25 -5957.94)"/>
</svg>
